<?xml version="1.0" encoding="UTF-8" standalone="no"?>
<!-- Created with Inkscape (http://www.inkscape.org/) -->

<svg
   xmlns:dc="http://purl.org/dc/elements/1.1/"
   xmlns:cc="http://creativecommons.org/ns#"
   xmlns:rdf="http://www.w3.org/1999/02/22-rdf-syntax-ns#"
   xmlns:svg="http://www.w3.org/2000/svg"
   xmlns="http://www.w3.org/2000/svg"
   xmlns:sodipodi="http://sodipodi.sourceforge.net/DTD/sodipodi-0.dtd"
   xmlns:inkscape="http://www.inkscape.org/namespaces/inkscape"
   width="auto"
   height="auto"
   viewBox="-40 30 320 205"
   version="1.1"
   id="svg8"
   sodipodi:docname="logo.svg"
   inkscape:version="0.92.3 (2405546, 2018-03-11)">
  <defs
     id="defs2" />
  <sodipodi:namedview
     id="base"
     pagecolor="#ffffff"
     bordercolor="#666666"
     borderopacity="1.0"
     inkscape:pageopacity="0.0"
     inkscape:pageshadow="2"
     inkscape:zoom="0"
     inkscape:cx="175.82505"
     inkscape:cy="343.00158"
     inkscape:document-units="mm"
     inkscape:current-layer="layer2"
     showgrid="false"
     inkscape:window-width="3440"
     inkscape:window-height="1377"
     inkscape:window-x="-8"
     inkscape:window-y="-8"
     inkscape:window-maximized="1" />
  <metadata
     id="metadata5">
    <rdf:RDF>
      <cc:Work
         rdf:about="">
        <dc:format>image/svg+xml</dc:format>
        <dc:type
           rdf:resource="http://purl.org/dc/dcmitype/StillImage" />
      </cc:Work>
    </rdf:RDF>
  </metadata>
  <g
     inkscape:label="Layer 1"
     inkscape:groupmode="layer"
     id="layer1"
     style="display:inline;opacity:1">
    <g
       id="g3725"
       transform="matrix(0.03527778,0,0,-0.03527778,-33.035126,233.6512)"
       style="display:inline;opacity:1;fill:none;stroke:#000000">
      <path
         id="path3713"
         d="m 5033,4845 c 31,-8 110,-36 174,-61 166,-66 264,-84 473,-91 156,-5 273,2 389,23 19,3 58,19 86,35 70,39 131,40 167,2 31,-33 48,-73 48,-114 0,-43 54,-97 196,-195 221,-152 374,-287 409,-360 35,-74 28,-151 -19,-209 -32,-40 -44,-26 -17,20 54,93 16,168 -149,292 -30,23 -66,48 -80,55 -112,60 -325,195 -367,232 -53,48 -93,115 -93,155 0,12 -3,21 -7,19 -134,-68 -213,-84 -458,-94 -281,-11 -431,20 -691,142 -188,89 -316,93 -849,27 -115,-14 -229,-18 -630,-18 l -490,-1 -66,-26 c -238,-93 -422,-258 -607,-541 -150,-230 -313,-632 -336,-832 -12,-101 -47,-246 -72,-304 -32,-73 -92,-133 -165,-166 -52,-23 -59,-30 -66,-63 -15,-70 -6,-443 11,-460 3,-2 20,26 38,64 43,90 92,139 160,158 69,20 203,36 296,36 111,0 406,67 450,102 6,6 12,8 12,5 0,-3 26,6 58,20 145,67 238,141 273,216 l 19,42 v -36 c 0,-37 -28,-88 -79,-142 -19,-21 -124,-103 -169,-133 -2,-1 17,-28 42,-61 80,-104 129,-235 151,-407 9,-67 39,-96 102,-97 26,0 57,-2 68,-5 50,-10 515,-15 532,-5 10,6 13,11 7,11 -20,0 -121,105 -161,167 -56,86 -94,207 -100,321 l -6,94 69,-9 c 121,-14 214,-6 311,27 135,47 130,46 116,28 -21,-25 -165,-87 -239,-103 -38,-8 -95,-15 -126,-15 -58,0 -58,0 -58,-31 0,-40 45,-172 77,-229 15,-25 71,-91 125,-146 108,-112 118,-137 72,-173 -44,-35 -123,-44 -315,-37 -98,3 -226,11 -285,17 -227,21 -243,36 -264,261 -12,124 -31,192 -76,278 -59,110 -49,106 -140,64 -170,-78 -329,-121 -557,-149 -130,-16 -182,-30 -204,-56 -6,-8 -22,-42 -36,-75 -32,-81 -83,-157 -118,-178 -15,-9 -44,-16 -64,-16 -30,0 -45,8 -75,38 -30,30 -40,51 -53,108 -28,120 -39,258 -35,407 6,209 33,260 175,321 58,25 91,92 117,231 30,162 43,217 73,310 118,366 342,745 559,944 192,177 388,273 594,290 84,8 250,0 320,-14 14,-3 97,-8 185,-11 233,-10 404,7 800,75 226,39 211,38 370,40 97,1 159,-4 198,-14 z M 6884,3749 c -7,-12 -73,-42 -156,-70 -122,-41 -221,-51 -578,-58 -319,-6 -348,-8 -390,-28 -25,-11 -56,-33 -70,-47 -21,-24 -25,-37 -24,-89 0,-35 8,-80 18,-102 43,-100 103,-211 187,-345 49,-80 104,-170 120,-201 36,-67 85,-116 261,-263 159,-132 202,-189 195,-254 -9,-78 -73,-118 -238,-149 -74,-13 -152,-17 -364,-18 -300,0 -342,7 -411,67 -55,48 -71,78 -133,240 -71,187 -93,232 -188,377 -85,131 -184,264 -322,435 -53,65 -106,131 -119,147 -13,16 -19,29 -13,29 13,0 286,-287 392,-413 167,-196 235,-309 382,-627 38,-83 55,-101 112,-126 114,-48 775,0 775,57 0,4 -69,69 -152,143 -235,206 -235,205 -411,511 -151,262 -196,393 -184,527 10,111 78,171 231,203 73,15 94,14 280,-1 353,-29 665,-9 774,51 33,17 35,18 26,4 z M 4813,2943 c -8,-21 -28,-64 -44,-95 -91,-181 -141,-371 -118,-454 6,-19 39,-58 93,-107 94,-86 146,-157 146,-199 0,-37 -35,-73 -86,-88 -61,-18 -275,-24 -440,-11 -229,18 -271,34 -260,103 3,21 18,75 34,120 26,80 27,90 27,303 0,167 -5,247 -19,333 -10,62 -16,115 -14,118 8,7 65,-206 82,-306 33,-191 29,-375 -13,-508 l -18,-61 66,-8 c 104,-12 523,-10 545,3 18,11 11,20 -78,113 -53,56 -105,116 -116,134 -59,95 9,318 175,577 25,38 47,70 49,70 3,0 -2,-17 -11,-37 z M 3449,1461 c 15,-9 21,-21 21,-46 0,-19 -2,-35 -5,-35 -2,0 -28,10 -57,21 -73,30 -169,30 -225,1 -121,-63 -128,-278 -11,-363 69,-50 196,-60 271,-22 23,12 27,12 27,-1 0,-66 -55,-91 -185,-84 -128,7 -219,59 -268,153 -16,31 -21,59 -21,120 0,98 13,139 61,189 68,70 124,87 269,82 56,-2 111,-9 123,-15 z m 811,-14 c 82,-42 130,-128 130,-233 0,-117 -51,-203 -148,-251 -48,-24 -69,-28 -137,-28 -91,0 -137,17 -191,72 -59,59 -69,87 -69,198 0,97 1,102 33,152 34,53 75,85 141,110 54,20 184,10 241,-20 z m -3720,-7 v -30 H 445 350 V 1175 940 h -45 -45 v 235 235 H 170 80 v 30 30 h 230 230 z m 480,-75 v -105 h 135 135 v 105 105 h 45 45 V 1205 940 h -45 -45 v 130 130 H 1155 1020 V 1070 940 h -45 -45 v 265 265 h 45 45 z m 1110,75 v -30 h -90 -90 v -80 -80 h 85 85 v -30 -30 h -85 -85 v -95 -95 h 100 c 90,0 100,-2 100,-18 0,-37 -20,-42 -157,-42 h -133 v 265 265 h 135 135 z m 2770,-154 c 0,-104 5,-197 10,-212 35,-91 176,-110 232,-31 22,30 23,42 26,230 l 3,197 h 37 38 l -4,-162 c -5,-252 -19,-299 -100,-350 -53,-33 -178,-33 -239,0 -77,41 -88,80 -97,345 l -5,167 h 49 50 z m 1007,2 183,-183 v 183 182 h 41 41 l -6,-92 c -3,-51 -5,-165 -6,-253 0,-88 -5,-167 -10,-175 -8,-12 -47,22 -195,170 l -185,185 V 1122 940 h -39 -40 l 5,243 c 5,244 8,287 22,287 4,0 89,-82 189,-182 z m 1113,152 v -30 h -95 -95 V 1175 940 h -45 -45 v 235 235 h -95 c -52,0 -95,3 -95,8 0,4 3,17 6,30 l 6,22 h 229 229 z m 633,16 c 101,-43 115,-157 30,-248 l -25,-26 54,-74 c 30,-40 71,-91 91,-113 20,-22 37,-43 37,-47 0,-16 -74,-7 -105,12 -17,11 -60,58 -95,105 -62,84 -63,85 -106,85 h -44 V 1045 940 h -45 -45 v 265 265 h 110 c 71,0 122,-5 143,-14 z m 598,-66 c 68,-127 91,-162 99,-153 4,4 25,42 46,83 70,137 80,150 119,150 41,0 43,-6 11,-53 -13,-19 -51,-84 -85,-144 l -61,-110 V 1052 940 h -50 -50 l 6,103 c 6,87 4,108 -11,137 -31,61 -107,183 -147,238 l -39,53 61,-3 61,-3 z M 660,661 c 20,-5 26,-14 28,-44 3,-38 -12,-49 -34,-27 -15,15 -50,23 -126,27 -57,4 -74,1 -108,-18 -62,-35 -85,-80 -85,-164 1,-103 49,-178 133,-206 34,-11 158,-7 200,6 18,6 22,4 22,-12 0,-11 -6,-28 -14,-39 -13,-17 -27,-19 -133,-19 -103,0 -123,3 -160,22 -93,50 -143,135 -143,242 0,91 74,196 161,227 36,13 217,17 259,5 z m 863,-16 c 45,-21 67,-59 67,-115 0,-47 -11,-73 -47,-112 l -25,-26 55,-74 c 30,-40 69,-86 86,-102 38,-36 40,-56 6,-56 -65,0 -97,28 -208,185 -14,19 -27,25 -57,25 h -40 V 270 170 h -40 -40 v 251 252 l 103,-5 c 70,-3 114,-10 140,-23 z m 1947,-5 v -30 h -90 -90 v -80 -80 h 80 80 v -30 -30 h -80 -80 V 280 170 h -40 -40 v 250 250 h 130 130 z m 968,-2 3,-28 h -91 -91 l 3,-220 3,-220 h -42 -43 v 220 220 h -85 c -83,0 -85,1 -85,24 0,13 6,27 13,29 6,3 102,5 212,4 l 200,-2 z m 800,-10 c 3,-41 -3,-45 -32,-23 -29,22 -102,19 -126,-5 -38,-38 -21,-82 51,-135 108,-79 124,-103 117,-177 -8,-83 -69,-128 -172,-128 -83,0 -106,12 -106,55 0,41 3,42 55,15 50,-26 86,-25 119,1 19,15 26,30 26,54 0,34 -12,47 -117,132 -72,58 -90,133 -47,199 27,40 68,54 154,51 l 75,-2 z m 1125,-263 23,-190 -44,-3 c -24,-2 -45,-2 -47,0 -1,2 -5,53 -9,113 -4,61 -9,130 -12,153 l -7,44 -29,-54 c -16,-29 -50,-91 -75,-138 -51,-97 -69,-119 -82,-105 -5,6 -42,75 -82,155 l -73,145 -8,-85 c -4,-47 -10,-117 -13,-157 l -7,-71 -39,-4 -40,-4 7,51 c 3,27 8,58 10,69 2,10 6,44 9,75 4,31 8,63 10,71 2,8 7,44 10,80 9,89 19,133 31,137 5,2 24,-20 41,-49 17,-29 57,-98 90,-153 32,-55 62,-109 66,-119 9,-23 16,-17 52,49 45,83 137,238 159,270 l 21,30 8,-60 c 4,-33 18,-145 30,-250 z m 1961,-35 c 5,0 6,74 2,170 l -7,170 h 41 41 l -6,-232 c -3,-128 -8,-244 -11,-257 -5,-22 -22,-7 -183,153 l -178,177 5,-170 4,-171 h -36 -36 v 204 c 0,112 3,224 6,251 l 7,47 171,-171 c 94,-94 175,-171 180,-171 z M 2462,563 c 25,-54 60,-132 78,-173 18,-41 48,-105 66,-142 19,-37 34,-70 34,-73 0,-3 -23,-5 -51,-3 l -51,3 -25,68 -25,67 h -88 -89 l -21,-57 c -27,-73 -36,-83 -71,-83 -36,0 -36,10 -3,80 14,30 50,113 80,184 67,156 102,226 113,226 4,0 28,-44 53,-97 z m 4750,0 c 25,-54 60,-132 78,-173 18,-41 48,-105 66,-142 19,-37 34,-70 34,-73 0,-3 -23,-5 -51,-3 l -51,3 -25,68 -25,67 h -88 -89 l -21,-57 c -27,-73 -36,-83 -71,-83 -36,0 -36,10 -3,80 14,30 50,113 80,184 67,156 102,226 113,226 4,0 28,-44 53,-97 z"
         inkscape:connector-curvature="0"
         sodipodi:nodetypes="ccccccscccccccscccccccccccccccscscccscccccccscccccccsscccccccccccssscccccccccccccccccccccccccccccsscccscccccccccccsccccsccccccccccsccssccccsccsccccscscscccccccccccccccccccccccccccccccccccccccccccccccccccccccccccsssccccccscccccccccccccssccccccccsccccccssccccccccccsscccccccccssccscccccccsccccsccccccccccccccccscccccscscscccsccccscsccccccccccccccccccccccccccccccccccccccccsscccccssccssccscccccccccccccccccccccccccsccscccccccsccccccccccccsccsscscscccccccsccsccscscccccccsccsc"
         style="fill:#00000f;fill-opacity:0.94117647;stroke-width:3.74999976;stroke-linejoin:round;stroke-miterlimit:4;stroke-dasharray:none" />
    </g>
    <path
       style="fill:#000000;fill-opacity:1;stroke:none;stroke-width:0.35714287;stroke-linejoin:round;stroke-miterlimit:4;stroke-dasharray:none;stroke-opacity:1"
       d="m 333.77195,618.74757 c -25.129,-1.43682 -40.51238,-3.35895 -46.09164,-5.75909 -7.13446,-3.06916 -9.36377,-8.11046 -11.446,-25.88378 -2.62992,-22.44828 -4.42981,-29.31293 -11.09354,-42.30997 -4.42827,-8.63699 -6.89012,-11.72945 -9.33757,-11.72945 -0.89653,0 -6.0596,1.96047 -11.4735,4.3566 -12.78706,5.6594 -30.14983,11.40202 -42.70061,14.12294 -5.5,1.19237 -17.90828,3.30389 -27.57395,4.69227 -17.67845,2.53933 -25.35465,4.3426 -28.31149,6.65082 -0.87985,0.68684 -3.47608,5.42737 -5.76941,10.53451 -8.8222,19.64665 -14.63946,26.07143 -23.60614,26.07143 -4.61087,0 -6.80372,-1.0931 -10.72339,-5.34543 -3.58402,-3.8882 -4.6118,-6.1291 -6.467787,-14.10187 -2.86184,-12.2936 -3.740604,-21.20668 -4.103834,-41.62413 -0.653449,-36.73084 1.975901,-43.81309 19.508791,-52.54765 5.26046,-2.62065 8.04715,-4.48694 9.56907,-6.40851 4.30689,-5.4379 7.16413,-14.00645 10.35177,-31.04384 4.18962,-22.39273 8.7194,-38.03501 16.96147,-58.57142 18.41328,-45.8796 45.1875,-86.00209 73.02204,-109.42716 22.7181,-19.11917 45.70846,-29.71143 70.31612,-32.39649 9.53265,-1.04016 29.31917,-0.50915 40.48338,1.08645 3.97544,0.56817 15.7496,1.40847 26.1648,1.86734 33.20284,1.46284 53.74725,-0.44205 110.5357,-10.24892 l 25.35714,-4.37897 21.78572,-0.0368 c 24.95586,-0.0422 23.72518,-0.23899 42.91233,6.86165 33.03146,12.22404 41.4389,13.88423 74.23053,14.65809 18.44304,0.43523 30.96858,-0.21149 43.57142,-2.24972 7.16693,-1.15909 6.80267,-1.03755 16.63646,-5.55085 12.43236,-5.70594 17.93309,-5.01303 23.5061,2.96097 2.48236,3.55184 3.10836,5.49189 4.51577,13.99495 0.73018,4.41142 9.35449,12.38158 26.85418,24.81728 34.08281,24.22006 50.06535,38.83484 54.25213,49.60932 1.13379,2.91774 1.6271,5.74543 1.66405,9.53843 0.0456,4.68009 -0.24841,6.00252 -2.22874,10.02517 -2.1902,4.44891 -5.91423,8.97483 -5.91423,7.18772 0,-0.47254 1.02116,-2.85892 2.26924,-5.30308 3.14669,-6.16228 3.21752,-12.01822 0.21356,-17.6582 -4.47784,-8.40723 -19.94021,-21.56846 -36.41821,-30.99839 -11.95346,-6.84065 -30.92824,-18.72343 -38.50523,-24.11355 -3.50306,-2.492 -7.9726,-6.45577 -9.9323,-8.80838 -4.17744,-5.01496 -7.6257,-11.8917 -7.6265,-15.20924 -3e-4,-1.28912 -0.41978,-2.50471 -0.93214,-2.70133 -0.51237,-0.19661 -4.3286,1.10188 -8.48051,2.88553 -15.74515,6.7641 -31.48862,8.94368 -64.87363,8.98137 -30.67464,0.0346 -44.9014,-3.14695 -76.21309,-17.04379 -22.03431,-9.77933 -28.20419,-11.15752 -49.85833,-11.13706 -16.31173,0.0154 -22.70289,0.51072 -54.90928,4.25543 -28.40282,3.30246 -43.87887,3.85701 -108.13121,3.87465 l -53.75477,0.0148 -6.60237,2.57321 c -31.3907,12.23424 -54.99167,31.85531 -77.98434,64.83359 -13.62456,19.54165 -25.8703,43.18956 -36.48174,70.45034 -7.85677,20.18404 -12.06028,35.19728 -14.64769,52.31565 -1.55299,10.27469 -5.3177,26.53221 -7.78954,33.63837 -3.8795,11.15298 -11.23507,19.32395 -22.84759,25.38036 -10.11025,5.27291 -9.64047,3.88556 -9.93343,29.33529 -0.21544,18.71527 0.57738,37.34018 1.71577,40.30677 0.74047,1.92962 1.91553,1.02865 4.12901,-3.16589 8.93974,-16.94081 14.09275,-22.36502 23.99222,-25.25493 6.3356,-1.84952 22.30258,-3.87887 36.45924,-4.63385 19.55465,-1.04286 48.80875,-7.03684 59.69046,-12.2302 2.44329,-1.16608 4.90086,-2.12014 5.46127,-2.12014 0.56041,0 5.49659,-2.21824 10.96931,-4.92942 16.54438,-8.19609 26.96414,-16.61762 31.80675,-25.7071 l 2.13447,-4.00634 -0.40719,3.10127 c -0.94957,7.23206 -6.96513,15.10233 -18.69628,24.46068 -4.98415,3.97602 -10.12772,7.919 -11.43017,8.76217 -1.30244,0.84316 -2.37205,1.97822 -2.37692,2.52235 -0.005,0.54412 2.03489,3.7584 4.5328,7.14285 11.16648,15.12964 16.16322,27.57545 20.0722,49.99554 0.98488,5.64881 2.37598,11.27272 3.09133,12.49757 1.88134,3.2213 5.37569,5.2953 9.6523,5.72894 14.87965,1.50877 27.88601,2.02785 53.01897,2.116 27.32934,0.0958 28.92397,0.0305 30.13284,-1.23444 0.89421,-0.93568 1.01862,-1.43158 0.41548,-1.65603 -1.90036,-0.70719 -7.95295,-6.08531 -12.037,-10.69568 -14.98416,-16.91513 -21.27183,-32.96566 -22.86893,-58.3775 l -0.4889,-7.77914 1.69932,0.41229 c 0.93463,0.22675 5.71718,0.79483 10.62789,1.2624 15.26972,1.45388 26.39626,-0.0183 43.16132,-5.71087 4.68515,-1.59084 8.64789,-2.763 8.80607,-2.60481 0.95393,0.95392 -14.05562,7.9871 -23.46002,10.9929 -8.3606,2.67218 -13.20929,3.57636 -21.98606,4.09993 -10.96413,0.65404 -10.33972,0.28345 -9.92984,5.89348 0.39644,5.42622 4.89347,19.60662 8.45627,26.66502 2.71656,5.38185 7.35168,11.11883 19.54465,24.1908 9.84278,10.55233 12.51741,14.72243 11.24039,17.52518 -1.04603,2.29579 -5.77507,5.32225 -10.32121,6.6053 -4.54688,1.28326 -32.5208,1.76409 -48.72585,0.83752 z"
       id="path4652"
       inkscape:connector-curvature="0"
       transform="scale(0.26458333)" />
    <path
       style="fill:none;fill-opacity:1;stroke:none;stroke-width:0.35714287;stroke-linejoin:round;stroke-miterlimit:4;stroke-dasharray:none;stroke-opacity:1"
       d="m 333.77195,618.74757 c -25.129,-1.43682 -40.51238,-3.35895 -46.09164,-5.75909 -7.13446,-3.06916 -9.36377,-8.11046 -11.446,-25.88378 -2.62992,-22.44828 -4.42981,-29.31293 -11.09354,-42.30997 -4.42827,-8.63699 -6.89012,-11.72945 -9.33757,-11.72945 -0.89653,0 -6.0596,1.96047 -11.4735,4.3566 -12.78706,5.6594 -30.14983,11.40202 -42.70061,14.12294 -5.5,1.19237 -17.90828,3.30389 -27.57395,4.69227 -17.67845,2.53933 -25.35465,4.3426 -28.31149,6.65082 -0.87985,0.68684 -3.47608,5.42737 -5.76941,10.53451 -8.8222,19.64665 -14.63946,26.07143 -23.60614,26.07143 -4.61087,0 -6.80372,-1.0931 -10.72339,-5.34543 -3.58402,-3.8882 -4.6118,-6.1291 -6.467787,-14.10187 -2.86184,-12.2936 -3.740604,-21.20668 -4.103834,-41.62413 -0.653449,-36.73084 1.975901,-43.81309 19.508791,-52.54765 5.26046,-2.62065 8.04715,-4.48694 9.56907,-6.40851 4.30689,-5.4379 7.16413,-14.00645 10.35177,-31.04384 4.18962,-22.39273 8.7194,-38.03501 16.96147,-58.57142 18.41328,-45.8796 45.1875,-86.00209 73.02204,-109.42716 22.7181,-19.11917 45.70846,-29.71143 70.31612,-32.39649 9.53265,-1.04016 29.31917,-0.50915 40.48338,1.08645 3.97544,0.56817 15.7496,1.40847 26.1648,1.86734 33.20284,1.46284 53.74725,-0.44205 110.5357,-10.24892 l 25.35714,-4.37897 21.78572,-0.0368 c 24.95586,-0.0422 23.72518,-0.23899 42.91233,6.86165 33.03146,12.22404 41.4389,13.88423 74.23053,14.65809 18.44304,0.43523 30.96858,-0.21149 43.57142,-2.24972 7.16693,-1.15909 6.80267,-1.03755 16.63646,-5.55085 12.43236,-5.70594 17.93309,-5.01303 23.5061,2.96097 2.48236,3.55184 3.10836,5.49189 4.51577,13.99495 0.73018,4.41142 9.35449,12.38158 26.85418,24.81728 34.08281,24.22006 50.06535,38.83484 54.25213,49.60932 1.13379,2.91774 1.6271,5.74543 1.66405,9.53843 0.0456,4.68009 -0.24841,6.00252 -2.22874,10.02517 -2.1902,4.44891 -5.91423,8.97483 -5.91423,7.18772 0,-0.47254 1.02116,-2.85892 2.26924,-5.30308 3.14669,-6.16228 3.21752,-12.01822 0.21356,-17.6582 -4.47784,-8.40723 -19.94021,-21.56846 -36.41821,-30.99839 -11.95346,-6.84065 -30.92824,-18.72343 -38.50523,-24.11355 -3.50306,-2.492 -7.9726,-6.45577 -9.9323,-8.80838 -4.17744,-5.01496 -7.6257,-11.8917 -7.6265,-15.20924 -3e-4,-1.28912 -0.41978,-2.50471 -0.93214,-2.70133 -0.51237,-0.19661 -4.3286,1.10188 -8.48051,2.88553 -15.74515,6.7641 -31.48862,8.94368 -64.87363,8.98137 -30.67464,0.0346 -44.9014,-3.14695 -76.21309,-17.04379 -22.03431,-9.77933 -28.20419,-11.15752 -49.85833,-11.13706 -16.31173,0.0154 -22.70289,0.51072 -54.90928,4.25543 -28.40282,3.30246 -43.87887,3.85701 -108.13121,3.87465 l -53.75477,0.0148 -6.60237,2.57321 c -31.3907,12.23424 -54.99167,31.85531 -77.98434,64.83359 -13.62456,19.54165 -25.8703,43.18956 -36.48174,70.45034 -7.85677,20.18404 -12.06028,35.19728 -14.64769,52.31565 -1.55299,10.27469 -5.3177,26.53221 -7.78954,33.63837 -3.8795,11.15298 -11.23507,19.32395 -22.84759,25.38036 -10.11025,5.27291 -9.64047,3.88556 -9.93343,29.33529 -0.21544,18.71527 0.57738,37.34018 1.71577,40.30677 0.74047,1.92962 1.91553,1.02865 4.12901,-3.16589 8.93974,-16.94081 14.09275,-22.36502 23.99222,-25.25493 6.3356,-1.84952 22.30258,-3.87887 36.45924,-4.63385 19.55465,-1.04286 48.80875,-7.03684 59.69046,-12.2302 2.44329,-1.16608 4.90086,-2.12014 5.46127,-2.12014 0.56041,0 5.49659,-2.21824 10.96931,-4.92942 16.54438,-8.19609 26.96414,-16.61762 31.80675,-25.7071 l 2.13447,-4.00634 -0.40719,3.10127 c -0.94957,7.23206 -6.96513,15.10233 -18.69628,24.46068 -4.98415,3.97602 -10.12772,7.919 -11.43017,8.76217 -1.30244,0.84316 -2.37205,1.97822 -2.37692,2.52235 -0.005,0.54412 2.03489,3.7584 4.5328,7.14285 11.16648,15.12964 16.16322,27.57545 20.0722,49.99554 0.98488,5.64881 2.37598,11.27272 3.09133,12.49757 1.88134,3.2213 5.37569,5.2953 9.6523,5.72894 14.87965,1.50877 27.88601,2.02785 53.01897,2.116 27.32934,0.0958 28.92397,0.0305 30.13284,-1.23444 0.89421,-0.93568 1.01862,-1.43158 0.41548,-1.65603 -1.90036,-0.70719 -7.95295,-6.08531 -12.037,-10.69568 -14.98416,-16.91513 -21.27183,-32.96566 -22.86893,-58.3775 l -0.4889,-7.77914 1.69932,0.41229 c 0.93463,0.22675 5.71718,0.79483 10.62789,1.2624 15.26972,1.45388 26.39626,-0.0183 43.16132,-5.71087 4.68515,-1.59084 8.64789,-2.763 8.80607,-2.60481 0.95393,0.95392 -14.05562,7.9871 -23.46002,10.9929 -8.3606,2.67218 -13.20929,3.57636 -21.98606,4.09993 -10.96413,0.65404 -10.33972,0.28345 -9.92984,5.89348 0.39644,5.42622 4.89347,19.60662 8.45627,26.66502 2.71656,5.38185 7.35168,11.11883 19.54465,24.1908 9.84278,10.55233 12.51741,14.72243 11.24039,17.52518 -1.04603,2.29579 -5.77507,5.32225 -10.32121,6.6053 -4.54688,1.28326 -32.5208,1.76409 -48.72585,0.83752 z"
       id="path4642"
       inkscape:connector-curvature="0"
       transform="scale(0.26458333)" />
    <path
       style="fill:none;fill-opacity:1;stroke:none;stroke-width:0.35714287;stroke-linejoin:round;stroke-miterlimit:4;stroke-dasharray:none;stroke-opacity:1"
       d="m -78.399967,726.27957 c 1.63e-4,-17.28572 0.09333,-24.25494 0.207042,-15.48717 0.113711,8.76778 0.113577,22.91064 -2.96e-4,31.42858 -0.113873,8.51794 -0.206909,1.3443 -0.206746,-15.94141 z"
       id="path4644"
       inkscape:connector-curvature="0"
       transform="scale(0.26458333)" />
    <path
       style="fill:none;fill-opacity:1;stroke:none;stroke-width:0.35714287;stroke-linejoin:round;stroke-miterlimit:4;stroke-dasharray:none;stroke-opacity:1"
       d="m -89.44234,725.92242 v -31.42857 h -12.14286 -12.14285 v -3.57143 -3.57142 h 29.999996 30 v 3.57142 3.57143 h -12.5 -12.5 v 31.42857 31.42858 h -5.357143 -5.357143 z"
       id="path4646"
       inkscape:connector-curvature="0"
       transform="scale(0.26458333)" />
    <path
       style="fill:none;fill-opacity:1;stroke:none;stroke-width:0.35714287;stroke-linejoin:round;stroke-miterlimit:4;stroke-dasharray:none;stroke-opacity:1"
       d="m -89.44234,725.92242 v -31.42857 h -12.14286 -12.14285 v -3.57143 -3.57142 h 29.999996 30 v 3.57142 3.57143 h -12.5 -12.5 v 31.42857 31.42858 h -5.357143 -5.357143 z"
       id="path4648"
       inkscape:connector-curvature="0"
       transform="scale(0.26458333)" />
    <path
       style="fill:none;fill-opacity:1;stroke:none;stroke-width:0.35714287;stroke-linejoin:round;stroke-miterlimit:4;stroke-dasharray:none;stroke-opacity:1"
       d="m 414.15957,757.3011 c -6.05694,-1.08032 -11.11671,-3.78869 -16.21342,-8.67867 -8.40909,-8.06803 -9.8597,-12.57395 -9.4276,-29.28447 0.26511,-10.25264 0.27171,-10.28733 2.75957,-14.51565 3.8387,-6.52415 9.50236,-11.83769 15.89513,-14.91249 4.65244,-2.23773 6.48531,-2.71171 11.76896,-3.04347 7.83878,-0.49219 18.28859,1.20304 23.75831,3.85422 8.08848,3.92048 14.51297,12.86442 16.47029,22.92936 1.15588,5.94376 0.46523,15.65176 -1.52688,21.46217 -3.07381,8.96545 -11.38012,17.14417 -21.10812,20.78388 -4.83105,1.80752 -16.13892,2.5176 -22.37624,1.40512 z m 19.44189,-7.01043 c 11.04454,-5.34657 15.20224,-15.27087 13.54085,-32.32158 -0.50729,-5.20626 -1.22168,-8.5065 -2.29809,-10.61644 -2.34524,-4.59705 -7.66643,-9.87576 -12.48924,-12.38953 -3.88544,-2.02519 -4.91347,-2.2401 -10.72589,-2.2423 -7.37325,-0.003 -10.31684,1.15894 -14.7457,5.81965 -11.8102,12.42846 -9.3749,39.62959 4.40283,49.17756 6.89105,4.7755 15.67326,5.78797 22.31524,2.57264 z"
       id="path4650"
       inkscape:connector-curvature="0"
       transform="scale(0.26458333)" />
  </g>
  <g
     inkscape:groupmode="layer"
     id="layer2"
     inkscape:label="innerfills"
     style="display:inline">
    <path
       transform="matrix(0.03527778,0,0,-0.03527778,-33.035126,233.6512)"
       id="path3723"
       d="m 7113,453 -31,-78 60,-3 c 33,-2 62,-1 64,1 4,3 -52,146 -60,154 -1,2 -17,-32 -33,-74 z"
       inkscape:connector-curvature="0"
       style="display:inline;opacity:1;fill:#ffffff;fill-opacity:1;stroke:#000000" />
    <path
       transform="matrix(0.03527778,0,0,-0.03527778,-33.035126,233.6512)"
       id="path3717"
       d="m 7490,1315 v -105 h 58 c 65,0 83,12 103,68 8,23 8,41 -1,67 -17,51 -53,75 -111,75 h -49 z"
       inkscape:connector-curvature="0"
       style="display:inline;opacity:1;fill:#ffffff;fill-opacity:1;stroke:#000000" />
    <path
       transform="matrix(0.03527778,0,0,-0.03527778,-33.035126,233.6512)"
       id="path3715"
       d="m 4034,1416 c -95,-42 -131,-202 -73,-323 55,-113 183,-144 270,-66 49,44 62,89 58,191 -4,70 -8,86 -34,124 -52,75 -146,106 -221,74 z"
       inkscape:connector-curvature="0"
       style="display:inline;opacity:1;fill:#ffffff;stroke:#000000;fill-opacity:1" />
    <path
       transform="matrix(0.03527778,0,0,-0.03527778,-33.035126,233.6512)"
       style="display:inline;opacity:1;fill:#ffffff;stroke:#000000;fill-opacity:1"
       id="path3721"
       d="m 2363,453 -31,-78 60,-3 c 33,-2 62,-1 64,1 4,3 -52,146 -60,154 -1,2 -17,-32 -33,-74 z"
       inkscape:connector-curvature="0" />
    <path
       transform="matrix(0.03527778,0,0,-0.03527778,-33.035126,233.6512)"
       id="path3719"
       d="M 1360,520 V 420 h 59 c 52,0 61,3 76,26 27,41 29,85 5,122 -22,36 -54,52 -106,52 h -34 z"
       inkscape:connector-curvature="0"
       style="display:inline;opacity:1;fill:#ffffff;stroke:#000000;fill-opacity:1" />
  </g>
</svg>
